PathFileType	4	(X/Y/Z)	C:\Users\86182\Documents\cortex\Trimmed_M1_L4.trc
DataRate	CameraRate	NumFrames	NumMarkers	Units	OrigDataRate	OrigDataStartFrame	OrigNumFrames
100.00	100.00	       71	2	mm	100.00	191	       951
Frame#	Time	gripper			box			
		X1	Y1	Z1	X2	Y2	Z2	

191	1.900	198.91116	193.64091	193.37189	203.16579	192.26738	59.66838	
192	1.910	198.87505	193.59935	193.45284	203.09550	192.21764	59.63385	
193	1.920	198.81808	193.54088	193.74385	202.80930	192.04170	59.68687	
194	1.930	198.79935	193.63197	193.95120	202.85423	192.03944	59.74109	
195	1.940	198.95132	193.66077	194.08165	202.51749	192.03510	59.98923	
196	1.950	198.72900	193.60197	194.32565	202.41823	192.03381	60.04450	
197	1.960	198.83186	193.64629	194.54671	202.43350	192.07846	60.25959	
198	1.970	198.89217	193.58356	194.91849	202.35547	192.01859	60.61604	
199	1.980	198.92601	193.59271	195.36130	202.41135	192.01346	60.69488	
200	1.990	198.81976	193.60095	195.77779	202.86301	192.10765	61.04473	
201	2.000	198.96362	193.64999	195.99146	202.00639	192.86510	62.12605	
202	2.010	198.84483	193.66199	196.34337	205.97513	192.54752	59.95890	
203	2.020	198.84351	193.67755	196.85300	202.62041	192.27509	62.30040	
204	2.030	198.84756	193.73958	197.24246	202.51263	192.24017	62.57126	
205	2.040	198.73726	193.66849	197.68257	202.65364	192.29930	62.84769	
206	2.050	198.70787	193.60266	198.03242	202.55989	192.36922	63.35027	
207	2.060	198.77470	193.62013	198.47726	201.94748	193.18646	64.24329	
208	2.070	198.92332	193.59361	198.86700	202.54768	192.26411	64.38151	
209	2.080	198.66754	193.71065	199.36723	202.60753	192.24852	64.65462	
210	2.090	198.49908	193.73621	199.78874	202.77585	192.37135	65.11043	
211	2.100	198.60640	193.56218	200.42998	202.53719	192.42148	65.39647	
212	2.110	198.56076	193.50171	200.70703	202.31886	192.28076	65.97213	
213	2.120	198.59087	193.46387	201.12296	201.69203	192.83400	67.12029	
214	2.130	198.48820	193.57877	201.77551	202.71854	192.27620	66.96138	
215	2.140	198.52113	193.62103	202.12839	202.54973	192.24213	67.31297	
216	2.150	198.78290	193.57791	202.49771	202.48856	192.26460	67.72903	
217	2.160	198.68248	193.52745	202.75822	202.46803	192.27248	67.95017	
218	2.170	198.67024	193.55228	203.31654	202.38791	192.34523	68.65548	
219	2.180	198.55339	193.71629	203.81570	201.77121	192.93765	69.50759	
220	2.190	198.48099	193.59309	204.20467	202.66701	192.25081	69.37177	
221	2.200	198.73297	193.58315	204.67722	202.36879	192.25023	69.80873	
222	2.210	198.87576	193.56842	205.00804	202.68948	192.41127	69.99274	
223	2.220	198.76749	193.63533	205.34360	202.35695	192.36278	70.68887	
224	2.230	198.64972	193.67162	205.81828	202.33754	192.24319	71.00571	
225	2.240	198.65266	193.65282	206.34413	201.85101	192.92213	71.86658	
226	2.250	198.81201	193.67065	206.70439	202.67055	192.29311	71.74406	
227	2.260	199.01439	193.61955	207.10573	202.73056	192.42488	72.29446	
228	2.270	198.73215	193.52982	207.44235	202.45258	192.20978	72.81813	
229	2.280	198.77505	193.69899	208.11349	202.38211	192.34413	73.15327	
230	2.290	198.75908	193.70786	208.50713	202.51959	192.26753	73.42219	
231	2.300	198.76027	193.66617	208.86177	201.87738	193.07628	74.60833	
232	2.310	198.66196	193.64989	209.41586	202.55717	192.40747	74.34777	
233	2.320	198.81044	193.68777	209.74796	202.44409	192.27982	74.97665	
234	2.330	198.56981	193.69774	210.25098	202.39845	192.28261	75.25774	
235	2.340	198.69333	193.74792	210.57562	202.55919	192.43810	75.68821	
236	2.350	198.59634	193.75148	211.05942	202.31599	192.29025	76.00732	
237	2.360	198.43661	193.75601	211.46315	205.65219	192.65308	74.70297	
238	2.370	198.39139	193.65628	211.87640	202.16273	192.36552	77.00329	
239	2.380	198.51460	193.78770	212.26303	202.36038	192.34311	77.26021	
240	2.390	198.66077	193.71655	212.65723	202.49821	192.29964	77.78797	
241	2.400	198.54852	193.66869	213.14297	202.24915	192.27914	78.10984	
242	2.410	198.46483	193.65460	213.45265	202.36403	192.40331	78.31461	
243	2.420	198.60687	193.76958	213.88641	202.17567	192.35748	79.16746	
244	2.430	198.73042	193.71941	214.40898	202.37054	192.29385	79.57214	
245	2.440	198.76151	193.71822	214.76083	202.51718	192.33064	79.84486	
246	2.450	198.60551	193.71101	215.24812	202.59946	192.45435	80.16681	
247	2.460	198.72752	193.75880	215.76936	202.47235	192.35236	80.63270	
248	2.470	198.71161	193.70264	216.13036	202.39490	192.24619	81.21223	
249	2.480	198.82970	193.74554	216.46011	202.37218	192.38837	81.61829	
250	2.490	198.77219	193.72633	216.92371	202.49783	192.45663	81.96909	
251	2.500	198.79987	193.76796	217.42732	202.45436	192.37581	82.50677	
252	2.510	198.73473	193.77563	217.79330	206.39247	192.65039	80.84642	
253	2.520	198.78177	193.79118	218.10751	202.25522	192.32199	83.27378	
254	2.530	198.65469	193.81602	218.57358	202.40845	192.28915	83.52405	
255	2.540	198.60124	193.80774	219.18213	202.37560	192.37506	84.01435	
256	2.550	198.69342	193.77573	219.46793	202.24968	192.46797	84.60082	
257	2.560	198.64142	193.72388	219.74889	205.53836	192.77328	82.98517	
258	2.570	198.80835	193.77013	220.30713	202.16779	192.28000	85.37240	
259	2.580	198.55615	193.71631	220.58525	202.22052	192.19978	85.58957	
260	2.590	198.43898	193.83090	221.13400	202.40793	192.25122	85.98690	
261	2.600	198.51376	193.87184	221.52562	202.32545	192.40926	86.61497	
